<?xml version="1.0" standalone="no"?>
<!DOCTYPE svg PUBLIC "-//W3C//DTD SVG 20010904//EN"
 "http://www.w3.org/TR/2001/REC-SVG-20010904/DTD/svg10.dtd">
<svg version="1.0" xmlns="http://www.w3.org/2000/svg"
 width="672.000000pt" height="672.000000pt" viewBox="0 0 672.000000 672.000000"
 preserveAspectRatio="xMidYMid meet">
<metadata>
Created by potrace 1.14, written by Peter Selinger 2001-2017
</metadata>
<g transform="translate(0.000000,672.000000) scale(0.100000,-0.100000)"
fill="#000000" stroke="none">
<path d="M3117 6703 c-3 -2 -31 -6 -63 -8 -32 -3 -72 -7 -89 -9 -133 -19 -166
-24 -200 -31 -108 -21 -220 -47 -236 -56 -11 -5 -19 -8 -19 -5 0 9 -279 -81
-295 -95 -5 -5 -14 -9 -21 -9 -6 0 -29 -8 -50 -17 -22 -9 -41 -17 -44 -18 -40
-12 -247 -116 -349 -176 -50 -30 -106 -63 -125 -74 -19 -11 -70 -46 -115 -77
-248 -177 -488 -406 -661 -628 -28 -36 -60 -75 -71 -86 -10 -12 -19 -26 -19
-32 0 -6 -3 -12 -7 -14 -9 -3 -81 -111 -143 -212 -40 -67 -179 -331 -179 -341
0 -3 -9 -26 -21 -51 -11 -26 -20 -48 -20 -50 0 -1 -5 -15 -12 -31 -6 -15 -12
-32 -14 -38 -2 -5 -19 -55 -38 -111 -30 -87 -77 -249 -90 -318 -3 -11 -10 -46
-16 -76 -6 -30 -13 -68 -15 -85 -2 -16 -7 -46 -10 -65 -7 -46 -13 -91 -22
-170 -10 -83 -10 -536 0 -615 4 -33 9 -80 12 -105 2 -25 7 -61 11 -80 3 -19 8
-46 10 -60 11 -63 18 -94 51 -230 19 -80 40 -151 45 -157 6 -7 8 -13 4 -13 -3
0 0 -16 8 -35 8 -19 12 -35 9 -35 -3 0 1 -7 8 -17 8 -9 12 -18 10 -20 -8 -9
96 -252 168 -395 73 -145 183 -328 223 -374 10 -11 18 -25 18 -31 0 -6 3 -13
8 -15 4 -2 27 -30 52 -63 25 -33 52 -68 61 -78 18 -20 16 -79 -7 -194 -6 -29
-28 -89 -37 -100 -5 -7 -7 -13 -3 -13 9 0 -60 -136 -94 -185 -38 -55 -73 -96
-149 -174 -53 -55 -65 -73 -68 -107 -5 -37 -1 -45 29 -76 51 -50 128 -72 258
-72 165 0 254 11 370 43 25 7 52 14 60 16 8 2 42 11 75 21 33 10 65 18 70 19
6 1 12 3 15 4 3 1 15 4 27 7 13 2 55 13 95 23 163 44 204 46 258 16 198 -110
409 -203 590 -261 58 -19 119 -39 137 -44 33 -11 63 -19 98 -25 11 -2 31 -7
45 -10 14 -4 32 -8 40 -9 8 -2 41 -8 72 -15 32 -7 70 -14 85 -16 16 -2 28 -4
28 -5 0 -1 30 -5 120 -15 287 -32 619 -24 890 21 126 21 119 20 236 48 258 61
479 147 787 305 100 52 407 258 463 311 8 8 35 31 59 50 73 59 258 249 360
369 25 30 50 59 56 65 5 6 37 47 69 91 33 44 62 82 65 85 14 13 124 187 177
280 67 117 124 234 173 355 17 44 36 89 41 100 25 58 105 326 123 419 3 11 10
46 16 76 6 30 13 69 15 85 2 17 7 46 10 65 23 143 30 245 29 480 0 124 -3 252
-7 285 -4 33 -10 83 -13 110 -6 58 -10 81 -24 150 -6 28 -13 66 -16 85 -2 19
-14 71 -25 115 -12 44 -23 87 -24 95 -2 8 -4 15 -5 15 -1 0 -3 7 -5 15 -5 29
-83 255 -110 320 -48 118 -148 313 -222 435 -85 139 -95 155 -106 169 -4 6
-24 34 -45 62 -105 144 -203 256 -343 394 -167 165 -318 289 -475 390 -38 25
-70 48 -72 52 -2 5 -8 8 -13 8 -5 0 -38 18 -74 40 -36 22 -68 40 -71 40 -3 0
-19 9 -35 21 -16 11 -29 17 -29 12 0 -4 -4 -3 -8 2 -6 9 -52 34 -72 40 -3 1
-36 16 -75 34 -115 54 -159 73 -170 76 -5 1 -17 5 -25 8 -85 34 -333 109 -405
123 -28 5 -115 23 -145 30 -14 3 -43 7 -65 10 -21 2 -51 7 -65 10 -26 5 -57 9
-150 20 -60 7 -537 13 -543 7z m520 -786 c161 -21 289 -50 488 -111 69 -21
292 -113 305 -126 3 -3 30 -17 60 -32 66 -33 129 -70 188 -109 24 -16 45 -29
47 -29 3 0 16 -10 30 -22 14 -13 49 -35 77 -51 90 -48 301 -247 419 -396 34
-42 70 -86 80 -99 10 -12 19 -25 19 -30 0 -4 14 -23 30 -42 16 -19 30 -39 30
-43 0 -4 17 -34 38 -65 62 -92 153 -281 201 -417 12 -33 24 -67 28 -75 3 -8 7
-19 8 -25 2 -5 14 -50 28 -100 25 -86 47 -192 53 -245 1 -14 5 -38 8 -55 26
-132 27 -515 2 -655 -5 -26 -10 -58 -21 -125 -11 -71 -75 -297 -112 -395 -33
-90 -167 -369 -181 -380 -4 -3 -16 -22 -26 -42 -11 -21 -23 -38 -28 -38 -4 0
-8 -5 -8 -11 0 -12 -61 -102 -72 -107 -5 -2 -8 -8 -8 -13 0 -5 -8 -17 -17 -28
-10 -10 -29 -32 -41 -50 -66 -87 -216 -241 -322 -331 -36 -30 -67 -57 -70 -61
-10 -12 -207 -146 -240 -165 -19 -10 -42 -24 -50 -31 -29 -23 -256 -132 -350
-169 -81 -31 -182 -65 -240 -79 -166 -41 -220 -52 -298 -61 -29 -3 -63 -7 -75
-10 -12 -3 -83 -7 -157 -9 -74 -3 -137 -5 -140 -6 -3 -1 -9 -1 -13 0 -4 1 -47
4 -95 6 -118 7 -212 17 -272 30 -14 3 -41 8 -60 11 -36 6 -184 41 -210 50 -8
3 -16 5 -17 5 -7 0 -198 71 -253 94 -97 41 -235 113 -301 156 -32 22 -61 39
-64 39 -8 0 -223 162 -265 200 -90 82 -208 202 -269 275 -84 101 -171 219
-171 234 0 6 -4 11 -10 11 -5 0 -10 6 -10 14 0 8 -4 16 -8 18 -12 5 -103 169
-150 274 -79 172 -148 388 -177 553 -8 47 -17 97 -19 111 -13 70 -19 182 -20
335 0 173 5 249 29 410 7 46 54 256 60 265 2 4 6 17 9 31 6 32 67 200 100 274
55 121 150 300 173 323 7 7 13 17 13 22 0 5 6 15 13 22 7 7 23 30 36 51 13 21
28 43 35 50 6 6 25 30 41 52 81 107 221 256 330 347 21 18 46 40 55 48 8 8 32
26 53 40 20 14 37 29 37 33 0 5 5 5 10 2 5 -3 10 -2 10 4 0 5 17 20 38 32 20
13 39 27 40 31 2 4 8 8 13 8 5 0 39 19 76 43 61 39 293 158 318 163 6 2 39 14
75 29 75 30 288 93 340 101 19 3 42 7 50 9 8 2 31 7 50 10 19 3 47 8 61 10 14
3 52 7 85 11 32 3 60 7 62 9 6 5 440 -2 489 -8z"/>
<path d="M2101 3964 c-93 -19 -167 -59 -231 -124 -64 -66 -69 -73 -92 -122
-44 -94 -57 -237 -30 -324 61 -195 224 -322 423 -330 134 -5 246 39 339 134
112 115 157 267 123 415 -56 248 -288 400 -532 351z"/>
<path d="M3338 3975 c-1 -1 -25 -5 -53 -8 -128 -13 -261 -102 -328 -218 -133
-234 -42 -533 198 -644 75 -34 95 -38 200 -38 215 -1 383 132 440 348 23 86 7
224 -37 308 -25 50 -32 59 -93 121 -70 72 -143 108 -245 122 -19 3 -45 6 -57
9 -12 2 -23 2 -25 0z"/>
<path d="M4498 3975 c-1 -2 -25 -5 -53 -8 -93 -9 -180 -54 -258 -132 -118
-120 -159 -294 -107 -454 41 -129 122 -219 250 -280 70 -33 81 -35 175 -35
146 0 239 37 334 135 136 140 168 353 78 527 -23 46 -106 150 -120 151 -4 1
-24 12 -45 26 -46 30 -114 55 -167 61 -22 3 -50 7 -62 9 -12 2 -23 2 -25 0z"/>
</g>
</svg>
